<?xml version="1.0" encoding="utf-8"?>
<!-- Generator: Adobe Illustrator 17.0.0, SVG Export Plug-In . SVG Version: 6.00 Build 0)  -->
<!DOCTYPE svg PUBLIC "-//W3C//DTD SVG 1.1//EN" "http://www.w3.org/Graphics/SVG/1.1/DTD/svg11.dtd">
<svg version="1.1" id="レイヤー_2" xmlns="http://www.w3.org/2000/svg" xmlns:xlink="http://www.w3.org/1999/xlink" x="0px"
	 y="0px" width="32px" height="64px" viewBox="0 0 32 64" enable-background="new 0 0 32 64" xml:space="preserve">
<g>
	<path fill="#555555" d="M26.959,36.273c-0.358-0.366-0.938-0.364-1.293,0.005l-5.531,5.719c-1.18-0.306-2.407-0.475-3.643-0.476
		c-0.011,0-0.023-0.002-0.034-0.002c-0.03,0-0.06,0.004-0.09,0.005c-4.856,0.039-9.71,2.444-11.453,7.348
		c1.026,1.989,2.417,3.552,4.015,4.708L4.266,58.4c-0.356,0.368-0.354,0.963,0.005,1.328C4.448,59.909,4.682,60,4.915,60
		c0.235,0,0.47-0.092,0.649-0.278l21.4-22.122C27.319,37.233,27.317,36.639,26.959,36.273z M13.53,44.105
		c1.262,0,2.285,1.038,2.311,2.328l-2.346,2.425c-1.263-0.019-2.281-1.074-2.281-2.374C11.214,45.17,12.251,44.105,13.53,44.105z
		 M7.305,48.85c0.776-2.185,2.334-3.743,4.231-4.697c-0.606,0.915-0.961,2.006-0.961,3.181c0,1.268,0.419,2.433,1.117,3.388
		l-1.546,1.598C9.023,51.434,8.044,50.283,7.305,48.85z"/>
	<path fill="#555555" d="M16.458,53.151c3.248,0,5.882-2.604,5.882-5.816c0-0.43-0.063-0.844-0.152-1.247l-6.744,6.971
		C15.774,53.116,16.111,53.151,16.458,53.151z"/>
	<path fill="#555555" d="M24.31,43.893l-1.259,1.302c1.157,0.928,2.068,2.142,2.56,3.655c-2.239,4.545-7.036,6.381-11.347,5.429
		l-1.234,1.276c5.599,1.549,12.032-0.719,14.972-6.685C27.315,46.761,25.993,45.101,24.31,43.893z"/>
</g>
<path fill="#555555" d="M16.441,8.777c-0.012,0-0.023-0.002-0.034-0.002c-0.03,0-0.059,0.004-0.09,0.005
	c-4.839,0.038-9.675,2.434-11.411,7.316c4.948,9.59,18.355,9.421,23,0C26.335,11.259,21.4,8.78,16.441,8.777z M15.798,13.719
	c0,1.307-1.033,2.368-2.308,2.368s-2.308-1.06-2.308-2.368s1.033-2.368,2.308-2.368S15.798,12.411,15.798,13.719z M7.288,16.076
	c0.773-2.176,2.325-3.727,4.215-4.675c-0.604,0.91-0.957,1.997-0.957,3.167c0,3.199,2.624,5.791,5.86,5.791
	c3.237,0,5.86-2.593,5.86-5.791c0-1.186-0.362-2.288-0.982-3.206c1.952,0.955,3.529,2.531,4.239,4.715
	C21.842,23.546,11.211,23.679,7.288,16.076z"/>
</svg>
