<?xml version="1.0" encoding="utf-8"?>
<!-- Generator: Adobe Illustrator 17.0.0, SVG Export Plug-In . SVG Version: 6.00 Build 0)  -->
<!DOCTYPE svg PUBLIC "-//W3C//DTD SVG 1.1//EN" "http://www.w3.org/Graphics/SVG/1.1/DTD/svg11.dtd">
<svg version="1.1" id="レイヤー_2" xmlns="http://www.w3.org/2000/svg" xmlns:xlink="http://www.w3.org/1999/xlink" x="0px"
	 y="0px" width="32px" height="64px" viewBox="0 0 32 64" enable-background="new 0 0 32 64" xml:space="preserve">
<g>
	<path fill="#555555" d="M27.872,35.296c-0.388-0.396-1.016-0.394-1.401,0.005l-5.992,6.195c-1.278-0.331-2.608-0.515-3.946-0.516
		c-0.012,0-0.025-0.002-0.037-0.002c-0.033,0-0.065,0.004-0.098,0.005c-5.261,0.042-10.519,2.648-12.407,7.96
		c1.111,2.155,2.618,3.848,4.349,5.1l-5.052,5.223c-0.386,0.399-0.384,1.043,0.005,1.439C3.486,60.901,3.739,61,3.991,61
		c0.255,0,0.509-0.1,0.703-0.301l23.183-23.965C28.262,36.336,28.26,35.692,27.872,35.296z M13.324,43.78
		c1.367,0,2.475,1.125,2.504,2.522l-2.541,2.627c-1.368-0.021-2.471-1.163-2.471-2.572C10.815,44.934,11.939,43.78,13.324,43.78z
		 M6.581,48.921c0.841-2.367,2.528-4.055,4.583-5.088c-0.656,0.991-1.041,2.173-1.041,3.446c0,1.374,0.454,2.636,1.21,3.67
		L9.658,52.68C8.442,51.72,7.381,50.473,6.581,48.921z"/>
	<path fill="#555555" d="M16.496,53.58c3.519,0,6.372-2.821,6.372-6.301c0-0.466-0.068-0.914-0.165-1.351l-7.306,7.552
		C15.755,53.542,16.12,53.58,16.496,53.58z"/>
	<path fill="#555555" d="M25.002,43.551l-1.364,1.41c1.253,1.005,2.24,2.321,2.773,3.959c-2.426,4.924-7.622,6.913-12.292,5.881
		l-1.337,1.382c6.065,1.678,13.035-0.779,16.219-7.242C28.258,46.658,26.826,44.859,25.002,43.551z"/>
</g>
<path fill="#555555" d="M16.569,8.532c-0.013,0-0.025-0.002-0.037-0.002c-0.033,0-0.065,0.004-0.098,0.005
	C11.145,8.577,5.86,11.195,3.962,16.531c5.408,10.481,20.061,10.297,25.138,0C27.382,11.245,21.989,8.535,16.569,8.532z
	 M15.866,13.933c0,1.429-1.129,2.588-2.522,2.588s-2.522-1.159-2.522-2.588s1.129-2.588,2.522-2.588S15.866,12.504,15.866,13.933z
	 M6.565,16.509c0.845-2.378,2.541-4.073,4.607-5.11c-0.66,0.995-1.046,2.183-1.046,3.461c0,3.496,2.868,6.329,6.405,6.329
	c3.538,0,6.405-2.834,6.405-6.329c0-1.296-0.396-2.501-1.073-3.504c2.133,1.044,3.857,2.766,4.633,5.153
	C22.472,24.674,10.853,24.819,6.565,16.509z"/>
</svg>
